<svg width="27" height="24" viewBox="0 -2 27 23" fill="none" xmlns="http://www.w3.org/2000/svg">
<path fill-rule="evenodd" clip-rule="evenodd" d="M13.3493 4.10908C10.0374 4.05321 6.61202 6.36772 4.45855 8.7381C3.99038 9.25786 3.99038 10.0473 4.45855 10.567C6.56519 12.8873 9.98067 15.2552 13.3493 15.1985C16.718 15.2552 20.1343 12.8873 22.2426 10.567C22.7107 10.0473 22.7107 9.25786 22.2426 8.7381C20.0866 6.36772 16.6613 4.05321 13.3493 4.10908Z" stroke="#404040" stroke-width="1.23243" stroke-linecap="round" stroke-linejoin="round"/>
<path fill-rule="evenodd" clip-rule="evenodd" d="M16.4297 9.65417C16.4293 11.3557 15.0496 12.7347 13.3481 12.7344C11.6466 12.7341 10.2674 11.3546 10.2676 9.65307C10.2677 7.95155 11.6471 6.57227 13.3487 6.57227C14.166 6.57205 14.95 6.8967 15.5278 7.47474C16.1057 8.05278 16.4302 8.83681 16.4297 9.65417V9.65417Z" stroke="#404040" stroke-width="1.23243" stroke-linecap="round" stroke-linejoin="round"/>
</svg>
